<svg width="443" height="360" viewBox="0 0 443 360" fill="none" xmlns="http://www.w3.org/2000/svg">
<g opacity="0.07">
<path d="M871.095 348C871.095 572.102 676.686 754 436.581 754C196.476 754 2.06641 572.102 2.06641 348C2.06641 123.897 196.476 -58 436.581 -58C676.686 -58 871.095 123.897 871.095 348Z" stroke="white" stroke-width="4"/>
<path d="M801.168 347.01C801.168 535.562 637.592 688.641 435.521 688.641C233.451 688.641 69.8745 535.562 69.8745 347.01C69.8745 158.457 233.451 5.37866 435.521 5.37866C637.592 5.37866 801.168 158.457 801.168 347.01Z" stroke="white" stroke-width="4"/>
<path d="M739.717 348C739.717 504.284 604.128 631.204 436.581 631.204C269.034 631.204 133.445 504.284 133.445 348C133.445 191.716 269.034 64.7961 436.581 64.7961C604.128 64.7961 739.717 191.716 739.717 348Z" stroke="white" stroke-width="4"/>
<path d="M680.385 348C680.385 473.656 571.359 575.748 436.58 575.748C301.802 575.748 192.776 473.656 192.776 348C192.776 222.344 301.802 120.252 436.58 120.252C571.359 120.252 680.385 222.344 680.385 348Z" stroke="white" stroke-width="4"/>
<path d="M618.934 348C618.934 441.935 537.421 518.311 436.581 518.311C335.74 518.311 254.228 441.935 254.228 348C254.228 254.065 335.74 177.689 436.581 177.689C537.421 177.689 618.934 254.065 618.934 348Z" stroke="white" stroke-width="4"/>
<path d="M573.147 348C573.147 418.299 512.134 475.514 436.581 475.514C361.028 475.514 300.015 418.299 300.015 348C300.015 277.701 361.028 220.485 436.581 220.485C512.134 220.485 573.147 277.701 573.147 348Z" stroke="white" stroke-width="4"/>
<path d="M512.901 348C512.901 387.199 478.861 419.204 436.581 419.204C394.301 419.204 360.261 387.199 360.261 348C360.261 308.8 394.301 276.796 436.581 276.796C478.861 276.796 512.901 308.8 512.901 348Z" stroke="white" stroke-width="4"/>
</g>
</svg>
